{
    "asset" : {
        "generator" : "Khronos glTF Blender I/O v1.6.16",
        "version" : "2.0"
    },
    "scene" : 0,
    "scenes" : [
        {
            "name" : "Scene",
            "nodes" : [
                0
            ]
        }
    ],
    "nodes" : [
        {
            "mesh" : 0,
            "name" : "Cylinder"
        }
    ],
    "materials" : [
        {
            "doubleSided" : true,
            "name" : "coffee_cup-body",
            "pbrMetallicRoughness" : {
                "baseColorTexture" : {
                    "index" : 0
                },
                "metallicFactor" : 0,
                "roughnessFactor" : 0.6377049088478088
            }
        },
        {
            "doubleSided" : true,
            "name" : "coffee_cup-lid",
            "pbrMetallicRoughness" : {
                "baseColorFactor" : [
                    0.006638383958488703,
                    0.006638383958488703,
                    0.006638383958488703,
                    1
                ],
                "metallicFactor" : 0,
                "roughnessFactor" : 0.41475409269332886
            }
        },
        {
            "doubleSided" : true,
            "name" : "black",
            "pbrMetallicRoughness" : {
                "baseColorFactor" : [
                    0,
                    0,
                    0,
                    1
                ],
                "metallicFactor" : 0
            }
        }
    ],
    "meshes" : [
        {
            "name" : "Cylinder",
            "primitives" : [
                {
                    "attributes" : {
                        "POSITION" : 0,
                        "NORMAL" : 1,
                        "TEXCOORD_0" : 2
                    },
                    "indices" : 3,
                    "material" : 0
                },
                {
                    "attributes" : {
                        "POSITION" : 4,
                        "NORMAL" : 5,
                        "TEXCOORD_0" : 6
                    },
                    "indices" : 7,
                    "material" : 1
                },
                {
                    "attributes" : {
                        "POSITION" : 8,
                        "NORMAL" : 9,
                        "TEXCOORD_0" : 10
                    },
                    "indices" : 11,
                    "material" : 2
                }
            ]
        }
    ],
    "textures" : [
        {
            "sampler" : 0,
            "source" : 0
        }
    ],
    "images" : [
        {
            "bufferView" : 4,
            "mimeType" : "image/jpeg",
            "name" : "sunshine_coffee_cup"
        }
    ],
    "accessors" : [
        {
            "bufferView" : 0,
            "componentType" : 5126,
            "count" : 226,
            "max" : [
                0.8592373132705688,
                2.0254034996032715,
                0.8675461411476135
            ],
            "min" : [
                -0.893136739730835,
                0.005971089005470276,
                -0.8848279118537903
            ],
            "type" : "VEC3"
        },
        {
            "bufferView" : 1,
            "componentType" : 5126,
            "count" : 226,
            "type" : "VEC3"
        },
        {
            "bufferView" : 2,
            "componentType" : 5126,
            "count" : 226,
            "type" : "VEC2"
        },
        {
            "bufferView" : 3,
            "componentType" : 5123,
            "count" : 666,
            "type" : "SCALAR"
        },
        {
            "bufferView" : 5,
            "componentType" : 5126,
            "count" : 1723,
            "max" : [
                0.9604742527008057,
                2.39143967628479,
                0.9791474938392639
            ],
            "min" : [
                -1.0077674388885498,
                1.9880107641220093,
                -0.9890944361686707
            ],
            "type" : "VEC3"
        },
        {
            "bufferView" : 6,
            "componentType" : 5126,
            "count" : 1723,
            "type" : "VEC3"
        },
        {
            "bufferView" : 7,
            "componentType" : 5126,
            "count" : 1723,
            "type" : "VEC2"
        },
        {
            "bufferView" : 8,
            "componentType" : 5123,
            "count" : 4926,
            "type" : "SCALAR"
        },
        {
            "bufferView" : 9,
            "componentType" : 5126,
            "count" : 18,
            "max" : [
                0.07487238943576813,
                2.3446786403656006,
                0.6904677748680115
            ],
            "min" : [
                -0.18885859847068787,
                2.3446786403656006,
                0.6135475635528564
            ],
            "type" : "VEC3"
        },
        {
            "bufferView" : 10,
            "componentType" : 5126,
            "count" : 18,
            "type" : "VEC3"
        },
        {
            "bufferView" : 11,
            "componentType" : 5126,
            "count" : 18,
            "type" : "VEC2"
        },
        {
            "bufferView" : 12,
            "componentType" : 5123,
            "count" : 48,
            "type" : "SCALAR"
        }
    ],
    "bufferViews" : [
        {
            "buffer" : 0,
            "byteLength" : 2712,
            "byteOffset" : 0
        },
        {
            "buffer" : 0,
            "byteLength" : 2712,
            "byteOffset" : 2712
        },
        {
            "buffer" : 0,
            "byteLength" : 1808,
            "byteOffset" : 5424
        },
        {
            "buffer" : 0,
            "byteLength" : 1332,
            "byteOffset" : 7232
        },
        {
            "buffer" : 0,
            "byteLength" : 2226500,
            "byteOffset" : 8564
        },
        {
            "buffer" : 0,
            "byteLength" : 20676,
            "byteOffset" : 2235064
        },
        {
            "buffer" : 0,
            "byteLength" : 20676,
            "byteOffset" : 2255740
        },
        {
            "buffer" : 0,
            "byteLength" : 13784,
            "byteOffset" : 2276416
        },
        {
            "buffer" : 0,
            "byteLength" : 9852,
            "byteOffset" : 2290200
        },
        {
            "buffer" : 0,
            "byteLength" : 216,
            "byteOffset" : 2300052
        },
        {
            "buffer" : 0,
            "byteLength" : 216,
            "byteOffset" : 2300268
        },
        {
            "buffer" : 0,
            "byteLength" : 144,
            "byteOffset" : 2300484
        },
        {
            "buffer" : 0,
            "byteLength" : 96,
            "byteOffset" : 2300628
        }
    ],
    "samplers" : [
        {
            "magFilter" : 9729,
            "minFilter" : 9987
        }
    ],
    "buffers" : [
        {
            "byteLength" : 2300724,
            "uri" : "data:application/octet-stream;base64,"
        }
    ]
}
