{
  "asset": {
    "generator": "Khronos glTF Blender I/O v1.6.16",
    "version": "2.0"
  },
  "scene": 0,
  "scenes": [
    {
      "name": "Scene",
      "nodes": [1]
    }
  ],
  "nodes": [
    {
      "name": "BezierCircle",
      "scale": [1.3932509422302246, 1.3932509422302246, 1.3932509422302246]
    },
    {
      "children": [0],
      "mesh": 0,
      "name": "Text",
      "translation": [0, 0.8651001453399658, 0]
    }
  ],
  "materials": [
    {
      "doubleSided": false,
      "name": "text_material",
      "pbrMetallicRoughness": {
        "baseColorFactor": [1, 0, 0.043735064566135406, 1],
        "metallicFactor": 0,
        "roughnessFactor": 0.5
      }
    }
  ],
  "meshes": [
    {
      "name": "Text",
      "primitives": [
        {
          "attributes": {
            "POSITION": 0,
            "NORMAL": 1,
            "TEXCOORD_0": 2
          },
          "indices": 3,
          "material": 0
        }
      ]
    }
  ],
  "accessors": [
    {
      "bufferView": 0,
      "componentType": 5126,
      "count": 10548,
      "max": [1.6796432733535767, 0.07000003755092621, 1.6999764442443848],
      "min": [-1.694863200187683, -0.0700000524520874, -1.6724339723587036],
      "type": "VEC3"
    },
    {
      "bufferView": 1,
      "componentType": 5126,
      "count": 10548,
      "type": "VEC3"
    },
    {
      "bufferView": 2,
      "componentType": 5126,
      "count": 10548,
      "type": "VEC2"
    },
    {
      "bufferView": 3,
      "componentType": 5123,
      "count": 15876,
      "type": "SCALAR"
    }
  ],
  "bufferViews": [
    {
      "buffer": 0,
      "byteLength": 126576,
      "byteOffset": 0
    },
    {
      "buffer": 0,
      "byteLength": 126576,
      "byteOffset": 126576
    },
    {
      "buffer": 0,
      "byteLength": 84384,
      "byteOffset": 253152
    },
    {
      "buffer": 0,
      "byteLength": 31752,
      "byteOffset": 337536
    }
  ],
  "buffers": [
    {
      "byteLength": 369288,
      "uri": "data:application/octet-stream;base64,"
    }
  ]
}
